<svg width="302" height="70" viewBox="0 0 302 70" fill="none" xmlns="http://www.w3.org/2000/svg">
<path d="M97.8225 34.8259C97.8178 28.5477 99.5163 22.3857 102.737 16.9966C98.8324 10.448 92.8864 5.36188 85.812 2.51876C78.7375 -0.324371 70.9255 -0.767345 63.575 1.25782C56.2245 3.28299 49.7417 7.66439 45.1216 13.7295C40.5015 19.7947 37.9995 27.2084 37.9995 34.8328C37.9995 42.4571 40.5015 49.8708 45.1216 55.936C49.7417 62.0011 56.2245 66.3825 63.575 68.4077C70.9255 70.4329 78.7375 69.9899 85.812 67.1468C92.8864 64.3036 98.8324 59.2175 102.737 52.6689C99.5146 47.2756 97.816 41.1087 97.8225 34.8259Z" fill="#DD2629"/>
<path d="M81.5495 19.5904H87.7065V49.9113H81.7679V30.2526L73.2355 44.3277H72.5392L64.0068 30.2935V49.9113H58.041V19.5904H64.1843L72.8942 33.9249L81.5495 19.5904Z" fill="white"/>
<path d="M162.56 34.8259C162.555 28.5477 164.254 22.3857 167.474 16.9966C163.57 10.448 157.624 5.36188 150.549 2.51876C143.475 -0.324371 135.663 -0.767345 128.312 1.25782C120.962 3.28299 114.479 7.66439 109.859 13.7295C105.239 19.7947 102.737 27.2084 102.737 34.8328C102.737 42.4571 105.239 49.8708 109.859 55.936C114.479 62.0011 120.962 66.3825 128.312 68.4077C135.663 70.4329 143.475 69.9899 150.549 67.1468C157.624 64.3036 163.57 59.2175 167.474 52.6689C164.252 47.2756 162.553 41.1087 162.56 34.8259Z" fill="#DD2629"/>
<path d="M146.437 19.4949H152.594V49.8567H146.655V30.1706L138.109 44.2594H137.413L128.867 30.2116V49.8567H122.887V19.4949H129.044L137.754 33.8567L146.437 19.4949Z" fill="white"/>
<path d="M227.297 34.8259C227.292 28.5477 228.991 22.3857 232.212 16.9966C228.307 10.448 222.361 5.36188 215.286 2.51876C208.212 -0.324371 200.4 -0.767345 193.049 1.25782C185.699 3.28299 179.216 7.66439 174.596 13.7295C169.976 19.7947 167.474 27.2084 167.474 34.8328C167.474 42.4571 169.976 49.8708 174.596 55.936C179.216 62.0011 185.699 66.3825 193.049 68.4077C200.4 70.4329 208.212 69.9899 215.286 67.1468C222.361 64.3036 228.307 59.2175 232.212 52.6689C228.989 47.2756 227.29 41.1087 227.297 34.8259Z" fill="#DD2629"/>
<path d="M191.256 19.5222H213.577V25.2423H205.386V49.8157H199.406V25.2423H191.215L191.256 19.5222Z" fill="white"/>
<path d="M267.038 69.6519C286.271 69.6519 301.863 54.0598 301.863 34.8259C301.863 15.5921 286.271 0 267.038 0C247.804 0 232.212 15.5921 232.212 34.8259C232.212 54.0598 247.804 69.6519 267.038 69.6519Z" fill="#DD2629"/>
<path d="M257.795 19.4949H269.113C270.476 19.47 271.83 19.7181 273.097 20.2245C274.363 20.7309 275.515 21.4855 276.485 22.4437C277.456 23.3807 278.223 24.5083 278.737 25.7558C279.252 27.0033 279.503 28.3437 279.474 29.6928C279.502 31.0398 279.25 32.3778 278.736 33.623C278.221 34.8681 277.455 35.9934 276.485 36.9283C275.515 37.8866 274.363 38.6411 273.097 39.1475C271.83 39.6539 270.476 39.902 269.113 39.8771H263.775V49.8567H257.795V19.4949ZM263.775 34.2799H269.113C269.707 34.2883 270.296 34.171 270.842 33.9357C271.388 33.7005 271.878 33.3525 272.28 32.9147C273.088 32.0092 273.534 30.8381 273.534 29.6246C273.534 28.4111 273.088 27.24 272.28 26.3345C271.87 25.911 271.377 25.5771 270.832 25.3539C270.287 25.1307 269.702 25.0229 269.113 25.0375H263.775V34.2799Z" fill="white"/>
<path d="M9.02326 50.6536V46.4028H27.6279V50.6536H16.8106L24.7043 55.4623V55.9405L16.8106 60.7492H27.6279V65H9.02326V60.7492L17.289 55.7014L9.02326 50.6536Z" fill="#939393"/>
<path d="M25.2093 26.15C27.0698 28.0275 28 30.3123 28 33.0044C28 35.6966 27.0698 37.9814 25.2093 39.8588C23.3488 41.7363 21.0543 42.675 18.3256 42.675C15.5969 42.675 13.3023 41.7363 11.4419 39.8588C9.5814 37.9814 8.65116 35.6966 8.65116 33.0044C8.65116 30.3123 9.5814 28.0275 11.4419 26.15C13.3023 24.2726 15.5969 23.3339 18.3256 23.3339C21.0543 23.3339 23.3488 24.2726 25.2093 26.15ZM18.3256 38.4242C19.9557 38.4242 21.2846 37.9106 22.3123 36.8833C23.34 35.856 23.8538 34.5631 23.8538 33.0044C23.8538 31.4635 23.34 30.1794 22.3123 29.1521C21.2669 28.1072 19.938 27.5847 18.3256 27.5847C16.7132 27.5847 15.3843 28.1072 14.3389 29.1521C13.3112 30.1794 12.7973 31.4635 12.7973 33.0044C12.7973 34.5631 13.3112 35.856 14.3389 36.8833C15.3666 37.9106 16.6955 38.4242 18.3256 38.4242Z" fill="#939393"/>
<path d="M7.45515 8.32093V16.2912H4L4 8.32093H7.45515ZM27.6279 5V9.2508H17.5282L27.6279 16.424V19.6121H9.02326V15.3613H19.1229L9.02326 8.1881V5H27.6279Z" fill="#939393"/>
</svg>
